<?xml version="1.0" standalone="no"?>
<!DOCTYPE svg PUBLIC "-//W3C//DTD SVG 20010904//EN"
 "http://www.w3.org/TR/2001/REC-SVG-20010904/DTD/svg10.dtd">
<svg version="1.0" xmlns="http://www.w3.org/2000/svg"
 width="1220.000000pt" height="433.000000pt" viewBox="0 0 1220.000000 433.000000"
 preserveAspectRatio="xMidYMid meet">
<metadata>
Created by potrace 1.16, written by Peter Selinger 2001-2019
</metadata>
<g transform="translate(0.000000,433.000000) scale(0.100000,-0.100000)"
fill="#000000" stroke="none">
<path d="M1803 4237 c-35 -51 -63 -97 -63 -103 0 -5 29 -18 65 -28 62 -18 67
-18 130 -1 36 10 68 21 70 25 5 8 -121 194 -133 197 -4 1 -35 -39 -69 -90z"/>
<path d="M4500 2900 l0 -1430 30 0 30 0 0 1430 0 1430 -30 0 -30 0 0 -1430z"/>
<path d="M5665 4261 c-83 -22 -162 -97 -192 -184 -17 -48 -18 -102 -18 -727 0
-762 -3 -734 78 -826 63 -72 98 -84 251 -84 111 0 136 3 172 21 54 25 99 77
133 149 25 53 26 62 26 237 0 178 0 182 -24 207 -38 41 -91 34 -116 -15 -11
-21 -15 -65 -15 -174 0 -157 -10 -200 -54 -230 -30 -22 -213 -21 -244 1 -53
37 -52 22 -52 716 0 627 1 644 20 676 26 43 74 62 155 62 81 0 129 -19 155
-62 18 -29 20 -50 20 -186 0 -97 4 -161 12 -175 27 -52 71 -60 115 -23 l28 24
0 184 c0 180 -1 184 -28 243 -33 70 -76 118 -132 148 -32 16 -62 21 -150 23
-60 2 -123 0 -140 -5z"/>
<path d="M6433 4246 l-28 -24 0 -864 c0 -810 1 -866 18 -891 25 -38 86 -39
116 -1 20 26 21 37 21 410 l0 384 175 0 174 0 3 -389 c3 -366 4 -390 22 -410
29 -32 88 -29 115 5 21 27 21 32 21 886 l0 860 -29 29 c-36 35 -61 37 -98 5
l-28 -24 -3 -391 -3 -391 -174 0 -175 0 0 380 c0 256 -4 387 -11 403 -11 24
-47 47 -74 47 -8 0 -27 -11 -42 -24z"/>
<path d="M7692 4258 c-12 -6 -26 -27 -32 -47 -20 -72 -300 -1648 -300 -1689 0
-32 6 -49 25 -67 30 -31 56 -32 90 -2 23 19 29 41 55 185 17 90 32 168 35 173
10 15 315 12 320 -3 3 -7 18 -85 34 -173 26 -143 32 -162 56 -183 49 -42 115
-5 115 65 0 26 -266 1603 -285 1688 -11 51 -66 77 -113 53z m103 -904 c30
-177 55 -329 55 -338 0 -14 -16 -16 -125 -16 -69 0 -125 3 -125 6 0 16 122
671 127 684 8 19 2 49 68 -336z"/>
<path d="M8405 4245 l-25 -24 0 -869 c0 -860 0 -868 20 -890 15 -15 33 -22 60
-22 73 0 70 -27 70 619 0 341 4 571 9 565 5 -5 88 -268 186 -584 133 -434 181
-579 198 -593 25 -21 70 -17 99 10 17 15 18 58 18 888 0 838 -1 874 -19 896
-26 32 -86 32 -112 0 -18 -22 -19 -52 -19 -600 0 -342 -4 -570 -10 -561 -4 9
-87 272 -184 585 -134 435 -180 574 -197 588 -30 24 -66 21 -94 -8z"/>
<path d="M9374 4259 c-12 -6 -27 -22 -33 -35 -8 -18 -11 -272 -11 -878 l0
-853 21 -27 21 -27 223 3 223 3 44 30 c50 35 103 110 118 165 7 26 10 275 8
732 l-3 693 -23 42 c-32 60 -79 111 -126 136 -38 20 -57 22 -241 24 -128 2
-208 -1 -221 -8z m395 -187 c19 -9 43 -33 53 -52 17 -33 18 -73 18 -667 0
-392 -4 -642 -10 -658 -5 -14 -22 -37 -36 -50 -26 -24 -32 -25 -165 -25 l-139
0 0 735 0 735 123 0 c96 0 129 -4 156 -18z"/>
<path d="M10622 4260 c-12 -5 -26 -20 -31 -32 -5 -13 -77 -403 -161 -868 -110
-610 -150 -851 -144 -869 22 -60 97 -76 129 -27 8 11 25 86 40 166 14 80 28
155 30 168 5 22 8 22 165 22 142 0 159 -2 164 -17 3 -10 17 -83 31 -163 14
-80 30 -155 35 -168 13 -31 56 -46 91 -32 62 26 66 -8 -95 928 -139 812 -148
858 -172 880 -27 23 -45 26 -82 12z m98 -903 c33 -191 60 -349 60 -352 0 -3
-56 -5 -125 -5 -93 0 -125 3 -125 13 -1 21 123 697 127 693 2 -1 30 -159 63
-349z"/>
<path d="M11336 4249 l-26 -20 0 -873 c0 -976 -5 -916 70 -916 30 0 43 6 59
26 20 26 21 37 21 410 l0 384 34 0 c18 0 38 -6 44 -12 6 -7 72 -182 147 -388
75 -206 143 -385 151 -397 22 -34 85 -32 113 3 12 15 21 39 21 53 0 15 -65
204 -145 421 -80 217 -145 402 -145 410 0 9 65 194 145 412 80 218 145 405
145 417 0 33 -20 68 -47 80 -73 33 -82 18 -238 -414 -76 -209 -142 -386 -147
-392 -6 -7 -26 -13 -44 -13 l-34 0 0 380 c0 256 -4 387 -11 403 -11 24 -47 47
-73 47 -7 0 -25 -9 -40 -21z"/>
<path d="M1653 4020 c-18 -27 -33 -52 -33 -54 0 -5 228 -77 249 -78 26 -2 251
72 251 82 0 15 -63 100 -74 100 -5 0 -47 -11 -93 -25 l-83 -26 -81 26 c-44 14
-85 25 -92 25 -7 0 -27 -23 -44 -50z"/>
<path d="M1512 3854 c-18 -25 -33 -50 -35 -56 -1 -6 86 -38 196 -73 l198 -62
200 61 c109 34 199 64 199 68 0 17 -73 109 -84 105 -6 -2 -79 -25 -163 -51
l-152 -47 -148 46 c-81 25 -155 48 -164 50 -10 3 -26 -11 -47 -41z"/>
<path d="M1362 3675 c-18 -25 -32 -50 -32 -55 0 -5 53 -26 118 -46 64 -20 186
-58 270 -84 l153 -48 272 85 c149 46 273 86 275 88 6 6 -68 105 -79 105 -6 0
-113 -32 -239 -71 l-229 -70 -228 70 c-126 39 -233 71 -239 71 -6 0 -25 -20
-42 -45z"/>
<path d="M1216 3502 c-20 -27 -36 -54 -36 -58 0 -5 156 -57 346 -115 l345
-107 337 104 c185 57 343 106 350 109 10 4 3 20 -24 58 -21 28 -39 53 -40 55
-1 2 -141 -40 -312 -93 l-310 -97 -298 93 c-165 50 -304 94 -310 96 -6 2 -28
-18 -48 -45z"/>
<path d="M1065 3320 c-21 -28 -35 -53 -33 -55 2 -3 192 -63 422 -134 l418
-129 415 129 c229 70 418 131 421 134 7 7 -60 105 -73 105 -5 0 -179 -52 -387
-116 l-376 -116 -376 116 c-206 64 -379 116 -385 116 -5 0 -26 -23 -46 -50z"/>
<path d="M917 3145 c-27 -39 -34 -57 -25 -60 7 -3 231 -72 496 -154 l484 -149
486 150 c268 83 490 153 494 157 11 9 -63 113 -76 108 -6 -2 -212 -66 -458
-141 l-446 -138 -444 137 c-244 76 -450 139 -458 141 -9 3 -30 -17 -53 -51z"/>
<path d="M771 2970 c-19 -28 -32 -52 -29 -55 3 -3 258 -84 567 -180 l562 -173
567 175 c312 96 568 176 569 177 6 6 -71 106 -81 106 -6 0 -246 -73 -532 -161
l-522 -161 -522 161 c-287 88 -527 161 -533 161 -7 0 -27 -23 -46 -50z"/>
<path d="M627 2798 c-20 -28 -34 -55 -29 -59 4 -4 292 -95 640 -202 l634 -196
636 196 c351 108 639 198 641 200 7 5 -19 49 -48 83 l-26 30 -601 -186 -602
-187 -593 183 c-327 101 -599 185 -605 187 -6 2 -27 -20 -47 -49z"/>
<path d="M476 2618 c-20 -29 -34 -53 -33 -54 1 -1 323 -101 715 -223 l714
-220 711 220 c391 120 713 221 715 223 6 7 -58 97 -73 102 -7 3 -314 -88 -683
-202 l-671 -207 -668 207 c-367 113 -674 206 -680 206 -7 0 -28 -23 -47 -52z"/>
<path d="M336 2453 c-20 -26 -36 -52 -36 -58 0 -5 355 -119 788 -252 l787
-242 775 240 c426 131 781 241 788 244 9 3 1 21 -24 60 -20 30 -38 55 -41 55
-2 0 -338 -103 -746 -230 -409 -126 -749 -230 -755 -230 -8 0 -1234 376 -1484
456 -12 3 -27 -9 -52 -43z"/>
<path d="M182 2269 c-18 -28 -32 -53 -30 -55 2 -2 390 -123 862 -268 l858
-265 855 264 c471 145 858 266 861 269 8 9 -59 106 -73 106 -7 0 -377 -112
-822 -250 -445 -137 -815 -250 -822 -250 -6 0 -375 113 -820 250 -445 138
-815 250 -822 250 -8 0 -29 -23 -47 -51z"/>
<path d="M36 2095 c-25 -39 -33 -57 -24 -60 7 -3 428 -133 936 -290 l924 -285
926 286 c510 157 931 290 935 294 14 13 -63 111 -82 106 -9 -3 -403 -125 -876
-271 -473 -147 -872 -269 -886 -271 -16 -4 -329 88 -917 270 -490 152 -893
276 -895 276 -2 0 -21 -25 -41 -55z"/>
<path d="M5569 1901 c-20 -21 -29 -39 -29 -63 0 -47 22 -74 77 -93 77 -27 93
-37 93 -56 0 -38 -108 -33 -140 6 -18 22 -26 19 -40 -16 -12 -29 -12 -33 11
-50 33 -25 112 -43 154 -35 19 4 48 18 65 32 25 21 30 33 30 68 0 52 -23 76
-97 100 -64 21 -83 40 -60 63 16 16 26 15 113 -12 15 -5 23 0 32 20 7 14 12
28 12 31 0 14 -77 34 -130 34 -55 0 -65 -3 -91 -29z"/>
<path d="M6270 1765 l0 -165 35 0 35 0 0 165 0 165 -35 0 -35 0 0 -165z"/>
<path d="M6840 1765 l0 -165 35 0 34 0 3 100 3 100 75 -100 c72 -95 77 -100
113 -100 l37 0 0 165 0 165 -35 0 -35 0 0 -107 0 -106 -80 106 c-75 100 -83
107 -115 107 l-35 0 0 -165z"/>
<path d="M7704 1916 c-71 -31 -111 -130 -85 -209 18 -52 80 -104 134 -112 47
-7 103 5 145 33 27 17 27 21 2 50 l-19 23 -33 -21 c-39 -24 -69 -25 -106 -6
-50 26 -69 91 -42 141 27 50 118 68 151 29 16 -20 35 -17 53 8 18 25 9 41 -35
64 -35 18 -124 18 -165 0z"/>
<path d="M8390 1765 l0 -165 125 0 125 0 0 30 0 30 -90 0 -90 0 0 35 0 35 80
0 80 0 0 35 0 35 -80 0 -80 0 0 35 0 35 90 0 90 0 0 30 0 30 -125 0 -125 0 0
-165z"/>
<path d="M9630 1895 c0 -33 2 -35 35 -35 l35 0 0 -130 0 -130 35 0 35 0 0 165
0 165 -70 0 -70 0 0 -35z"/>
<path d="M10301 1914 c-47 -33 -62 -119 -28 -165 28 -37 105 -52 148 -29 26
15 25 -2 -3 -35 -25 -28 -43 -32 -99 -21 -31 7 -36 5 -47 -19 -11 -23 -10 -26
16 -37 15 -6 51 -11 79 -12 93 -1 143 60 143 175 0 73 -24 123 -70 146 -35 18
-111 16 -139 -3z"/>
<path d="M11019 1901 c-33 -34 -37 -69 -11 -101 18 -22 18 -23 -5 -46 -30 -30
-32 -95 -4 -123 49 -49 165 -49 213 0 39 39 35 102 -10 135 -12 9 -12 12 2 23
16 14 21 65 10 96 -10 26 -59 45 -114 45 -44 0 -56 -5 -81 -29z"/>
<path d="M11772 1910 c-79 -49 -97 -206 -30 -277 49 -52 155 -50 197 4 25 31
28 91 6 133 -24 47 -118 63 -162 28 -17 -14 -16 -3 2 32 21 41 68 50 127 25
13 -5 21 0 29 19 18 38 1 49 -74 54 -50 2 -69 -1 -95 -18z"/>
<path d="M0 995 l0 -35 6060 0 6060 0 0 35 0 35 -6060 0 -6060 0 0 -35z"/>
<path d="M50 190 l0 -190 40 0 40 0 0 55 0 55 55 0 c110 0 165 46 165 136 0
45 -5 59 -28 85 -32 36 -79 48 -194 49 l-78 0 0 -190z m173 109 c61 -17 71
-80 17 -109 -10 -5 -39 -10 -64 -10 l-46 0 0 65 c0 64 0 65 28 65 15 0 44 -5
65 -11z"/>
<path d="M520 191 l0 -191 40 0 40 0 0 56 0 55 42 -3 c39 -3 44 -7 73 -55 29
-50 32 -53 73 -53 23 0 42 5 42 10 0 6 -15 34 -34 62 l-35 51 28 28 c41 41 50
126 18 170 -30 40 -66 51 -177 57 l-110 5 0 -192z m213 88 c40 -49 -2 -99 -84
-99 l-49 0 0 66 0 67 58 -7 c40 -4 62 -12 75 -27z"/>
<path d="M1108 370 c-155 -47 -172 -278 -26 -349 106 -51 232 -9 279 94 45 96
-1 207 -103 250 -40 16 -106 18 -150 5z m140 -86 c37 -24 55 -77 42 -124 -27
-99 -156 -116 -210 -28 -25 42 -25 74 0 116 36 59 109 75 168 36z"/>
<path d="M1540 191 l0 -191 40 0 40 0 0 118 0 117 52 -97 c45 -85 55 -98 77
-98 23 0 33 13 78 98 l53 97 0 -117 0 -118 40 0 40 0 0 191 0 190 -47 -3 -48
-3 -55 -107 c-30 -60 -57 -108 -60 -108 -3 0 -30 48 -60 108 l-55 107 -47 3
-48 3 0 -190z"/>
<path d="M2150 190 l0 -190 40 0 40 0 0 190 0 190 -40 0 -40 0 0 -190z"/>
<path d="M2472 365 c-39 -17 -66 -72 -57 -116 9 -39 54 -74 114 -89 27 -6 58
-21 68 -32 17 -19 17 -20 -6 -39 -31 -26 -49 -24 -114 10 l-54 29 -16 -33
c-15 -31 -14 -34 2 -49 45 -41 154 -58 214 -32 52 22 72 52 71 104 -1 56 -30
84 -109 108 -82 23 -107 55 -61 76 24 10 61 3 126 -26 22 -9 49 62 29 75 -47
30 -153 37 -207 14z"/>
<path d="M2870 190 l0 -190 140 0 140 0 0 35 0 35 -100 0 -100 0 0 45 0 45 85
0 85 0 0 35 0 35 -85 0 -85 0 0 40 0 40 95 0 95 0 0 35 0 35 -135 0 -135 0 0
-190z"/>
<path d="M3376 365 c-43 -22 -55 -44 -56 -96 0 -58 18 -76 114 -109 57 -20 72
-29 74 -47 7 -49 -91 -50 -152 -2 -15 12 -28 20 -30 18 -2 -2 -11 -18 -20 -36
-16 -31 -15 -32 12 -51 44 -31 100 -45 158 -39 60 6 96 26 112 63 33 70 -3
128 -98 159 -65 21 -80 31 -80 56 0 37 62 33 151 -9 7 -3 29 44 29 62 0 38
-157 60 -214 31z"/>
<path d="M4010 190 l0 -190 40 0 40 0 1 118 0 117 50 -97 c44 -88 52 -98 77
-98 25 0 32 10 79 103 l52 102 0 -122 1 -123 35 0 35 0 0 190 0 190 -43 0 -43
0 -54 -110 c-30 -61 -57 -110 -60 -110 -3 0 -31 50 -63 110 l-58 110 -45 0
-44 0 0 -190z"/>
<path d="M4655 199 c-44 -99 -81 -185 -83 -190 -2 -5 16 -9 40 -9 41 0 44 2
60 40 l17 40 84 0 85 0 16 -40 c15 -37 18 -40 56 -40 23 0 40 5 40 11 0 6 -35
92 -77 190 l-78 179 -40 0 -40 0 -80 -181z"/>
<path d="M5120 190 l0 -190 83 0 c189 1 269 57 269 190 0 134 -80 190 -272
190 l-80 0 0 -190z m213 99 c48 -22 72 -101 46 -152 -22 -43 -50 -57 -116 -57
l-63 0 0 110 0 110 55 0 c30 0 65 -5 78 -11z"/>
<path d="M5640 190 l0 -190 145 0 145 0 0 35 0 35 -105 0 -105 0 0 45 0 45 90
0 90 0 0 35 0 35 -90 0 -90 0 0 40 0 40 100 0 100 0 0 35 0 35 -140 0 -140 0
0 -190z"/>
<path d="M6330 191 l0 -191 40 0 40 0 0 55 0 55 60 0 c105 0 156 36 167 117 7
54 -17 108 -59 129 -23 12 -65 19 -140 22 l-108 5 0 -192z m212 92 c21 -19 23
-52 4 -78 -10 -13 -30 -20 -75 -23 l-61 -4 0 67 0 68 57 -7 c31 -4 65 -14 75
-23z"/>
<path d="M6800 190 l0 -190 40 0 40 0 0 55 0 55 44 0 c43 0 45 -1 76 -55 31
-54 33 -55 76 -55 24 0 44 4 44 8 0 5 -17 33 -38 62 l-39 53 31 28 c29 25 31
32 31 92 0 55 -4 69 -24 91 -29 31 -95 46 -201 46 l-80 0 0 -190z m209 100
c15 -8 21 -20 21 -45 0 -46 -29 -65 -97 -65 l-53 0 0 66 0 67 54 -6 c30 -3 64
-10 75 -17z"/>
<path d="M7380 364 c-75 -33 -113 -91 -113 -174 0 -30 7 -68 15 -85 66 -126
258 -142 344 -29 26 34 29 45 29 114 0 69 -3 80 -29 114 -52 69 -163 96 -246
60z m168 -99 c46 -49 45 -101 -2 -153 -30 -33 -40 -37 -81 -37 -41 0 -51 4
-81 37 -25 28 -34 47 -34 73 0 113 122 163 198 80z"/>
<path d="M7830 190 l0 -190 35 0 35 0 0 123 0 122 54 -100 c49 -90 57 -100 82
-100 26 0 33 9 81 100 l53 100 0 -122 0 -123 35 0 35 0 0 190 0 190 -44 0 -43
0 -59 -115 -59 -114 -58 114 -57 115 -45 0 -45 0 0 -190z"/>
<path d="M8440 190 l0 -190 40 0 40 0 0 190 0 190 -40 0 -40 0 0 -190z"/>
<path d="M8753 360 c-39 -23 -53 -48 -53 -93 0 -50 25 -74 110 -105 58 -22 76
-32 78 -49 7 -49 -76 -53 -143 -7 l-35 23 -15 -29 c-8 -16 -15 -34 -15 -39 0
-18 80 -52 135 -58 101 -11 165 32 165 112 0 53 -30 83 -112 111 -69 23 -89
43 -69 68 17 21 40 20 101 -3 l51 -19 13 31 c16 37 9 49 -43 66 -53 17 -131
14 -168 -9z"/>
<path d="M9150 190 l0 -190 145 0 145 0 0 35 0 35 -105 0 -105 0 0 45 0 45 90
0 90 0 0 35 0 35 -90 0 -90 0 0 40 0 40 100 0 100 0 0 35 0 35 -140 0 -140 0
0 -190z"/>
<path d="M9670 369 c-38 -16 -59 -39 -66 -75 -12 -67 17 -103 112 -134 80 -27
97 -45 65 -71 -13 -11 -29 -19 -36 -19 -22 0 -79 22 -107 42 l-27 19 -16 -30
c-8 -17 -15 -34 -15 -39 0 -17 82 -54 134 -59 102 -11 166 32 166 111 0 59
-20 81 -95 106 -91 30 -116 58 -74 80 22 12 68 6 112 -16 26 -14 28 -14 44 21
15 31 15 37 3 46 -44 27 -151 37 -200 18z"/>
<path d="M10300 190 l0 -190 40 0 40 0 0 48 c0 35 6 54 25 77 16 19 27 26 32
19 101 -140 105 -144 150 -144 24 0 43 5 43 11 0 9 -78 124 -132 196 -6 8 14
36 61 86 39 41 71 77 71 81 0 3 -21 6 -47 6 -47 -1 -49 -2 -123 -84 l-75 -83
-3 83 -3 84 -39 0 -40 0 0 -190z"/>
<path d="M10790 190 l0 -190 145 0 145 0 0 35 0 35 -105 0 -105 0 0 45 0 45
90 0 90 0 0 35 0 35 -90 0 -90 0 0 40 0 40 100 0 100 0 0 35 0 35 -140 0 -140
0 0 -190z"/>
<path d="M11250 191 l0 -191 40 0 40 0 0 55 0 55 60 0 c111 0 163 41 164 129
2 103 -40 132 -196 139 l-108 5 0 -192z m212 92 c18 -17 23 -49 10 -69 -14
-21 -51 -34 -96 -34 l-46 0 0 66 0 67 57 -7 c31 -4 65 -14 75 -23z"/>
<path d="M11680 340 l0 -40 55 0 55 0 0 -150 0 -150 40 0 40 0 0 150 0 150 60
0 60 0 0 40 0 40 -155 0 -155 0 0 -40z"/>
</g>
</svg>
