<?xml version="1.0" encoding="utf-8"?>
<!-- Generator: Adobe Illustrator 22.0.1, SVG Export Plug-In . SVG Version: 6.00 Build 0)  -->
<svg version="1.1" id="Layer_1" xmlns="http://www.w3.org/2000/svg" xmlns:xlink="http://www.w3.org/1999/xlink" x="0px" y="0px"
	 viewBox="0 0 70 35" style="enable-background:new 0 0 70 35;" xml:space="preserve">
<style type="text/css">
	.st0{fill:#6995BE;}
	.st1{fill:#A65DD5;}
</style>
<g>
	<g>
		<g>
			<path vector-effect="non-scaling-stroke" class="st0" d="M24.8,10.3c-0.4,0-0.7,0.3-0.7,0.7s0.3,0.7,0.7,0.7
				c0.4,0,0.7-0.3,0.7-0.7S25.2,10.3,24.8,10.3z"/>
		</g>
	</g>
	<g>
		<g>
			<path vector-effect="non-scaling-stroke" class="st0" d="M30.3,12.4l-1.9-1.2c-0.6-1-3.5-5.6-7.7-6.2c-0.7-0.1-1.3-0.1-1.9-0.2
				l-0.3-4.1c0-0.2-0.2-0.5-0.4-0.6c-0.2-0.1-0.5-0.1-0.7,0c-0.1,0.1-3.5,1.7-4.2,6.7c-0.2,0.3-0.4,0.5-0.6,0.7l-0.1,0.1
				c-1.6,1.3-2,3.3-2.4,5.3c-0.6,2.9-1.3,6.2-5.4,9.3c-0.2,0.1-0.3,0.4-0.3,0.6s0.1,0.4,0.3,0.6l16,11.7c0.1,0,0.3,0,0.4,0
				s0.1,0,0.2,0c0.2,0,0.4-0.2,0.5-0.3s1.8-3.2,2.3-7.1c0.4-3.2-0.9-5.1-1.4-5.9c0-0.1-0.1-0.1-0.1-0.2c0.2-1.4,1.3-1.7,3.1-2
				c0.9-0.2,1.9-0.3,2.7-0.8c1-0.5,1.5-1.4,1.6-2.6c0-0.2-0.1-0.4-0.2-0.6l0.3-0.3c0.1-0.1,0.1-0.2,0.2-0.3l0.4-1.9
				C30.7,12.9,30.5,12.6,30.3,12.4z M20.9,33.3L6.3,22.7c0.2-0.2,0.5-0.4,0.7-0.6l14.3,10.4C21.1,32.8,21,33,20.9,33.3z M28.8,14.6
				l-0.9,1c-0.2,0.2-0.2,0.5-0.1,0.7s0.3,0.4,0.5,0.5h0.1c-0.3,0.9-1.2,1.1-2.9,1.4c-1,0.2-1.9,0.3-2.7,0.8c-1,0.6-1.5,1.5-1.6,2.7
				c0,0.3,0.1,0.6,0.4,0.9c0.5,0.7,1.5,2.2,1.2,4.9C22.6,28.8,22.3,30,22,31L8,21c2.4-2.8,3-5.5,3.5-7.9c0.4-1.9,0.7-3.4,1.9-4.5
				l0.1-0.1l0,0c0.1,0,0.2,0.1,0.2,0.1s0,0,0.1,0c0.4,0,0.7-0.3,0.7-0.7c0.2-2.1,0.8-3.8,1.9-5.1c0.2-0.3,0.4-0.5,0.7-0.7l0.4,4.7
				c0,0.4,0.4,0.7,0.8,0.7S19,7.1,19,6.7V6.2c0.5,0,1,0.1,1.5,0.1c3.8,0.5,6.7,5.6,6.7,5.6c0.1,0.1,0.1,0.2,0.2,0.3l1.6,1L28.8,14.6
				z"/>
		</g>
	</g>
</g>
<g>
	<g>
		<g>
			<path vector-effect="non-scaling-stroke" class="st1" d="M59.8,10.3c-0.4,0-0.7,0.3-0.7,0.7s0.3,0.7,0.7,0.7
				c0.4,0,0.7-0.3,0.7-0.7S60.2,10.3,59.8,10.3z"/>
		</g>
	</g>
	<g>
		<g>
			<path vector-effect="non-scaling-stroke" class="st1" d="M65.3,12.4l-1.9-1.2c-0.6-1-3.5-5.6-7.7-6.2c-0.7-0.1-1.3-0.2-1.9-0.2
				l-0.3-4.1c0-0.2-0.2-0.5-0.4-0.6c-0.2-0.1-0.5-0.1-0.7,0s-3.5,1.7-4.2,6.7c-0.2,0.3-0.4,0.5-0.6,0.7l-0.1,0.1
				c-1.6,1.3-2,3.3-2.4,5.3c-0.6,2.9-1.3,6.2-5.4,9.3c-0.2,0.1-0.3,0.4-0.3,0.6s0.1,0.4,0.3,0.6l16,11.7c0.1,0,0.3,0,0.4,0
				c0,0,0.1,0,0.2,0c0.2,0,0.4-0.2,0.5-0.3c0.1-0.1,1.8-3.2,2.3-7c0.4-3.2-0.9-5.1-1.4-5.9c0-0.1-0.1-0.1-0.1-0.2
				c0.2-1.4,1.3-1.7,3.2-2c0.9-0.2,1.9-0.3,2.7-0.8c1-0.5,1.5-1.4,1.6-2.6c0-0.2-0.1-0.4-0.2-0.6l0.3-0.3c0.1-0.1,0.1-0.2,0.2-0.3
				l0.4-1.9C65.7,12.9,65.5,12.6,65.3,12.4z M55.9,33.3L41.3,22.7c0.2-0.2,0.5-0.4,0.7-0.6l14.3,10.4C56.1,32.8,56,33,55.9,33.3z
				 M63.8,14.6l-0.9,1c-0.2,0.2-0.2,0.5-0.1,0.7c0.1,0.2,0.3,0.4,0.5,0.5h0.1c-0.3,0.9-1.2,1.1-2.9,1.4c-1,0.2-1.9,0.3-2.7,0.8
				c-1,0.6-1.6,1.5-1.6,2.7c0,0.3,0.2,0.6,0.4,0.9c0.5,0.7,1.5,2.2,1.2,4.9C57.6,28.8,57.3,30,57,31L43,21c2.4-2.8,3-5.5,3.5-7.9
				c0.4-1.9,0.7-3.4,1.9-4.5l0.1-0.1l0,0c0.1,0,0.2,0.1,0.2,0.1s0,0,0.1,0c0.4,0,0.7-0.3,0.7-0.7c0.2-2.1,0.8-3.8,1.9-5.1
				c0.2-0.3,0.5-0.5,0.7-0.7l0.4,4.7c0,0.4,0.4,0.7,0.8,0.7c0.4,0,0.7-0.4,0.7-0.8V6.2c0.5,0,1,0.1,1.5,0.1c3.8,0.5,6.7,5.6,6.7,5.6
				c0.1,0.1,0.1,0.2,0.3,0.3l1.6,1L63.8,14.6z"/>
		</g>
	</g>
</g>
</svg>
