<?xml version="1.0" encoding="utf-8"?>
<!-- Generator: Adobe Illustrator 22.0.1, SVG Export Plug-In . SVG Version: 6.00 Build 0)  -->
<svg version="1.1" id="Layer_1" xmlns="http://www.w3.org/2000/svg" xmlns:xlink="http://www.w3.org/1999/xlink" x="0px" y="0px"
	 viewBox="0 0 70 35" style="enable-background:new 0 0 70 35;" xml:space="preserve">
<style type="text/css">
	.st0{fill:#6995BE;}
	.st1{fill:#A65DD5;}
</style>
<g>
	<g>
		<g>
			<path vector-effect="non-scaling-stroke" class="st0" d="M23.2,11.7c-0.4,0-0.7,0.3-0.7,0.7s0.3,0.7,0.7,0.7
				c0.4,0,0.7-0.3,0.7-0.7S23.6,11.7,23.2,11.7z"/>
		</g>
	</g>
	<g>
		<g>
			<path vector-effect="non-scaling-stroke" class="st0" d="M33.7,17c0-0.2-0.1-0.4-0.3-0.5L26.7,12c-0.2-0.7-0.6-2.1-1.2-2.7
				c-0.2-0.2-0.7-0.6-2.5-1c-0.5-0.1-0.9-0.2-1.2-0.2c0-1.6-0.5-3.4-1.4-5.1s-1.8-2.8-1.8-2.8C18.5,0.1,18.2,0,18,0
				s-0.5,0.2-0.6,0.4S16.1,3.6,16,7.2c-0.1,0.1-0.2,0.2-0.4,0.2c-1.1,0.8-3.8,4-8.1,9.6c-1.8,2.3-3.4,4.5-4.6,6l0,0
				c-0.9,1.2-1.5,2-1.5,2c-0.1,0.2-0.2,0.4-0.1,0.6c0,0.2,0.2,0.4,0.3,0.5l14.6,8.8c0.1,0.1,0.2,0.1,0.4,0.1c0.1,0,0.2,0,0.3-0.1
				c0.2-0.1,0.4-0.3,0.4-0.5l2.8-14.5c1.2,0.4,3.4,1,5.2,1c2.6,0,5.9-1.4,6.1-1.4c0.1,0,0.2-0.1,0.2-0.2l0.6-0.6l0,0l1.2-1.2
				C33.6,17.4,33.7,17.2,33.7,17z M5,26.2c0,0.1,0,0.1,0,0.2l-1.9-1.1c0.2-0.3,0.4-0.5,0.6-0.8l1.8,1.1C5.2,25.6,5,25.9,5,26.2z
				 M7.9,28c0,0.1,0,0.1,0,0.2l-2-1.2c0.3-0.1,0.6-0.4,0.6-0.7c0-0.1,0-0.1,0-0.2l2,1.2C8.1,27.4,7.9,27.7,7.9,28z M10.8,29.7
				c0,0.1,0,0.2,0.1,0.3l-2.1-1.3c0.3-0.1,0.6-0.4,0.6-0.7c0-0.1,0-0.1,0-0.2l1.9,1.2C11,29.1,10.8,29.4,10.8,29.7z M13.7,31.4
				c0,0.1,0,0.3,0.1,0.4l-2.2-1.3c0.4,0,0.7-0.3,0.7-0.7v-0.1l1.9,1.1C13.9,30.8,13.7,31.1,13.7,31.4z M16.1,33.1l-1.7-1l0,0
				c0.4,0,0.7-0.3,0.7-0.7l0,0l1.1,0.7L16.1,33.1z M25.3,19.5c-2.3,0-5.5-1.2-5.5-1.2l0,0l0,0l-2-0.7c-0.4-0.1-0.8,0.1-0.9,0.4
				c-0.1,0.4,0.1,0.8,0.4,0.9l1.4,0.5l-2.1,11.1l-12-7.2C8.2,18.5,13.9,11.1,16,9c0,0.4,0.1,0.9,0.2,1.3c0.1,0.3,0.4,0.6,0.7,0.6H17
				c0.4-0.1,0.7-0.5,0.6-0.9c-0.6-2.9,0.2-6.1,0.7-7.8c0.3,0.4,0.6,0.9,0.9,1.5c0.7,1.4,1.4,3.5,1.1,5.8c-0.1,0.4,0.2,0.8,0.6,0.8
				c0.4,0.1,0.8-0.2,0.8-0.6V9.6c1.3,0.2,2.5,0.6,2.8,0.8c0.3,0.3,0.7,1.4,0.9,2.2c0,0.2,0.2,0.3,0.3,0.4l3.2,2.1
				c0.1,0.3,0.3,1,0.6,1.6c0.3,0.7,0.6,1.2,1,1.5C29.6,18.7,27.1,19.5,25.3,19.5z M31.6,17.4c-0.1-0.1-0.3-0.3-0.5-0.7l0.8,0.5
				L31.6,17.4z"/>
		</g>
	</g>
</g>
<g>
	<g>
		<g>
			<path vector-effect="non-scaling-stroke" class="st1" d="M58.2,11.7c-0.4,0-0.7,0.3-0.7,0.7s0.3,0.7,0.7,0.7
				c0.4,0,0.7-0.3,0.7-0.7S58.6,11.7,58.2,11.7z"/>
		</g>
	</g>
	<g>
		<g>
			<path vector-effect="non-scaling-stroke" class="st1" d="M68.7,17c0-0.2-0.1-0.4-0.3-0.5L61.7,12c-0.2-0.7-0.6-2.1-1.2-2.7
				c-0.2-0.2-0.7-0.6-2.5-1c-0.5-0.1-0.9-0.2-1.2-0.2c0-1.6-0.5-3.4-1.4-5.1c-0.9-1.7-1.8-2.8-1.8-2.8C53.5,0.1,53.2,0,53,0
				s-0.5,0.2-0.6,0.4c-0.1,0.2-1.3,3.2-1.4,6.8c-0.1,0.1-0.2,0.2-0.4,0.2c-1.1,0.8-3.8,4-8.1,9.6c-1.8,2.3-3.4,4.5-4.6,6l0,0
				c-0.9,1.2-1.5,2-1.5,2c-0.1,0.2-0.2,0.4-0.1,0.6c0,0.2,0.2,0.4,0.3,0.5l14.6,8.8c0.1,0.1,0.2,0.1,0.4,0.1c0.1,0,0.2,0,0.3-0.1
				c0.2-0.1,0.4-0.3,0.4-0.5l2.8-14.5c1.2,0.4,3.4,1,5.2,1c2.6,0,5.9-1.4,6.1-1.4c0.1,0,0.2-0.1,0.2-0.2l0.6-0.6l0,0l1.2-1.2
				C68.6,17.4,68.7,17.2,68.7,17z M40,26.2c0,0.1,0,0.1,0,0.2l-1.9-1.1c0.2-0.3,0.4-0.5,0.6-0.8l1.8,1.1C40.2,25.6,40,25.9,40,26.2z
				 M42.9,28c0,0.1,0,0.1,0,0.2l-2-1.2c0.3-0.1,0.6-0.4,0.6-0.7c0-0.1,0-0.1,0-0.2l2,1.2C43.1,27.4,42.9,27.7,42.9,28z M45.8,29.7
				c0,0.1,0,0.2,0.1,0.3l-2.1-1.3c0.3-0.1,0.6-0.4,0.6-0.7c0-0.1,0-0.1,0-0.2l1.9,1.2C46,29.1,45.8,29.4,45.8,29.7z M48.7,31.4
				c0,0.1,0,0.3,0.1,0.4l-2.2-1.3c0.4,0,0.7-0.3,0.7-0.7v-0.1l1.9,1.1C48.9,30.8,48.7,31.1,48.7,31.4z M51.1,33.1l-1.7-1l0,0
				c0.4,0,0.7-0.3,0.7-0.7l0,0l1.1,0.7L51.1,33.1z M60.3,19.5c-2.3,0-5.5-1.2-5.5-1.2l0,0l0,0l-2-0.7c-0.4-0.1-0.8,0.1-0.9,0.4
				c-0.1,0.4,0.1,0.8,0.4,0.9l1.4,0.5l-2.1,11.1l-12-7.2C43.2,18.5,48.9,11.1,51,9c0,0.4,0.1,0.9,0.2,1.3c0.1,0.3,0.4,0.6,0.7,0.6
				H52c0.4-0.1,0.7-0.5,0.6-0.9c-0.6-2.9,0.2-6.1,0.7-7.8c0.3,0.4,0.6,0.9,0.9,1.5c0.7,1.4,1.4,3.5,1.1,5.8
				c-0.1,0.4,0.2,0.8,0.6,0.8c0.4,0.1,0.8-0.2,0.8-0.6V9.6c1.3,0.2,2.5,0.6,2.8,0.8c0.3,0.3,0.7,1.4,0.9,2.2c0,0.2,0.2,0.3,0.3,0.4
				l3.2,2.1c0.1,0.3,0.3,1,0.6,1.6c0.3,0.7,0.6,1.2,1,1.5C64.6,18.7,62.1,19.5,60.3,19.5z M66.6,17.4c-0.1-0.1-0.3-0.3-0.5-0.7
				l0.8,0.5L66.6,17.4z"/>
		</g>
	</g>
</g>
</svg>
