<?xml version="1.0" encoding="utf-8"?>
<!-- Generator: Adobe Illustrator 22.0.1, SVG Export Plug-In . SVG Version: 6.00 Build 0)  -->
<svg version="1.1" id="Layer_1" xmlns="http://www.w3.org/2000/svg" xmlns:xlink="http://www.w3.org/1999/xlink" x="0px" y="0px"
	 viewBox="0 0 70 35" style="enable-background:new 0 0 70 35;" xml:space="preserve">
<style type="text/css">
	.st0{fill:#6995BE;}
	.st1{fill:#A65DD5;}
</style>
<g>
	<g>
		<g>
			<path vector-effect="non-scaling-stroke" class="st0" d="M21.5,8c-0.4,0-0.7,0.3-0.7,0.7s0.3,0.7,0.7,0.7c0.4,0,0.7-0.3,0.7-0.7
				S21.9,8,21.5,8z"/>
		</g>
	</g>
	<g>
		<g>
			<path vector-effect="non-scaling-stroke" class="st0" d="M31.6,14.3c-0.1-0.4-0.3-1-1.7-2.5C29.1,11,28,10,26.7,8.9
				C25,7.4,23.2,6,22.6,5.5C21.9,1,19.3,0.1,19.2,0c-0.2,0-0.4,0-0.6,0.1c-0.2,0.1-0.3,0.3-0.3,0.5l-0.7,3.6c-0.4,0-0.9,0.1-1.4,0.3
				c-0.6,0-2.7,0.2-5.2,1.8c-1.6,1.1-3,2.6-4.2,4.5c-1.5,2.3-2.6,5.2-3.4,8.6c0,0.2,0,0.4,0.1,0.6s0.4,0.3,0.6,0.3
				c0.3,0,1.3,0,2,0.2l13.5,14.3c0.1,0.1,0.3,0.2,0.5,0.2l0,0c0.2,0,0.4-0.1,0.5-0.3s2.8-3.9,2.8-7.9c0-3.4-2.2-7.1-2.9-8.1l0.5-2.4
				c0.2,0.1,0.5,0.1,0.7,0.2c0.8,0.2,1.6,0.2,2.1,0.2c0.1,0.3,0.1,0.6,0.2,0.9c0.4,1.2,0.9,1.9,1.5,2.1c1.2,0.4,2.6-0.7,2.9-0.8
				c0.6,0.4,1,0.3,1.2,0.1c0.3-0.2,0.9-0.9,1.2-1.7C31.3,16.5,31.8,15.4,31.6,14.3z M6,19c-0.3-0.1-0.7-0.1-1-0.1
				c0.7-2.8,1.7-5.3,2.9-7.2c0.9-1.5,2-2.7,3.2-3.7C9,10.9,6.7,17,6,19z M29.2,17.4c-0.2-0.2-0.5-0.6-0.7-0.9s-0.6-0.4-0.9-0.2
				c-0.3,0.1-0.5,0.5-0.4,0.8l0.2,0.8c-0.4,0.2-0.9,0.4-1.2,0.4c-0.1-0.1-0.3-0.4-0.6-1.2c-0.2-0.6-0.3-1.2-0.3-1.2
				c-0.1-0.4-0.4-0.6-0.8-0.6c0,0-4.2,0.4-5.4-2.1c-0.2-0.4-0.6-0.5-1-0.3s-0.5,0.6-0.3,1c0.4,0.9,1.1,1.5,2,2l-0.6,3
				c0,0.2,0,0.4,0.1,0.6c0,0,2.8,4,2.8,7.5c0,2.5-1.3,5-2.1,6.3L7.3,19.7c0.3-0.8,1-2.7,1.8-4.7c1.5-3.5,2.8-5.9,3.9-7
				c1-1,2.2-1.8,3.5-2.2c0.3-0.1,0.6-0.2,0.9-0.2l-0.1,1.2c0,0.4,0.3,0.7,0.7,0.8l0,0c0.4,0,0.7-0.3,0.7-0.7l0.1-2l0.6-3
				c0.1,0.1,0.2,0.2,0.3,0.3C20.3,2.8,20.9,4,21.2,6c0,0.2,0.1,0.4,0.3,0.5c0,0,2.2,1.7,4.3,3.5c4.1,3.5,4.4,4.4,4.4,4.5
				C30.3,15.6,29.6,16.8,29.2,17.4z"/>
		</g>
	</g>
</g>
<g>
	<g>
		<g>
			<path vector-effect="non-scaling-stroke" class="st1" d="M56.5,8c-0.4,0-0.7,0.3-0.7,0.7s0.3,0.7,0.7,0.7s0.7-0.3,0.7-0.7
				C57.2,8.4,56.9,8,56.5,8z"/>
		</g>
	</g>
	<g>
		<g>
			<path vector-effect="non-scaling-stroke" class="st1" d="M66.6,14.3c-0.1-0.4-0.3-1-1.7-2.5C64.1,11,63,10,61.7,8.9
				C60,7.4,58.2,6,57.6,5.5C56.9,1,54.3,0.1,54.2,0c-0.2,0-0.4,0-0.6,0.1c-0.2,0.1-0.3,0.3-0.3,0.5l-0.7,3.6c-0.4,0-0.9,0.1-1.4,0.3
				c-0.6,0-2.7,0.2-5.1,1.8c-1.6,1.1-3,2.6-4.2,4.5c-1.5,2.3-2.6,5.2-3.3,8.6c0,0.2,0,0.4,0.2,0.6c0.1,0.2,0.4,0.3,0.6,0.3
				c0.3,0,1.3,0,1.9,0.2l13.5,14.3c0.1,0.1,0.3,0.2,0.5,0.2l0,0c0.2,0,0.4-0.1,0.5-0.3c0.1-0.2,2.8-3.9,2.8-7.9
				c0-3.4-2.2-7.1-2.9-8.1l0.5-2.4c0.2,0.1,0.5,0.1,0.7,0.2c0.8,0.2,1.6,0.2,2.1,0.2c0.1,0.3,0.1,0.6,0.2,0.9
				c0.4,1.2,0.9,1.9,1.5,2.1c1.2,0.4,2.6-0.6,2.9-0.8c0.6,0.4,1,0.3,1.2,0.1c0.3-0.2,0.9-0.9,1.2-1.7C66.3,16.5,66.8,15.4,66.6,14.3
				z M41,19c-0.3-0.1-0.7-0.1-1-0.1c0.7-2.8,1.7-5.3,2.9-7.2c0.9-1.5,2-2.7,3.2-3.7C44,11,41.7,17,41,19z M64.2,17.4
				c-0.2-0.2-0.5-0.6-0.7-0.9s-0.6-0.4-0.9-0.2c-0.3,0.1-0.5,0.5-0.4,0.8l0.2,0.8c-0.4,0.2-0.9,0.4-1.2,0.4
				c-0.1-0.1-0.3-0.4-0.6-1.2c-0.2-0.6-0.3-1.2-0.3-1.2c-0.1-0.4-0.4-0.6-0.8-0.6c0,0-4.2,0.4-5.4-2.1c-0.2-0.4-0.6-0.5-1-0.3
				s-0.5,0.6-0.3,1c0.4,0.9,1.1,1.5,2,2l-0.6,3c0,0.2,0,0.4,0.1,0.6c0,0,2.8,4,2.8,7.5c0,2.5-1.3,5-2.1,6.2L42.3,19.7
				c0.3-0.8,1-2.6,1.8-4.7c1.5-3.5,2.8-5.9,3.9-7c1-1,2.2-1.8,3.5-2.2c0.3-0.1,0.6-0.2,0.9-0.2l-0.1,1.2c0,0.4,0.3,0.7,0.7,0.8l0,0
				c0.4,0,0.7-0.3,0.7-0.7l0.1-2l0.6-3c0.1,0.1,0.2,0.2,0.3,0.3C55.2,2.8,55.9,4,56.1,6c0,0.2,0.1,0.4,0.3,0.5c0,0,2.2,1.7,4.3,3.5
				c4.1,3.5,4.4,4.4,4.4,4.5C65.3,15.6,64.6,16.8,64.2,17.4z"/>
		</g>
	</g>
</g>
</svg>
