<?xml version="1.0" encoding="utf-8"?>
<!-- Generator: Adobe Illustrator 22.0.1, SVG Export Plug-In . SVG Version: 6.00 Build 0)  -->
<svg version="1.1" id="Layer_1" xmlns="http://www.w3.org/2000/svg" xmlns:xlink="http://www.w3.org/1999/xlink" x="0px" y="0px"
	 viewBox="0 0 70 35" style="enable-background:new 0 0 70 35;" xml:space="preserve">
<style type="text/css">
	.st0{fill:#6995BE;}
	.st1{fill:#A65DD5;}
</style>
<g>
	<g>
		<g>
			<path vector-effect="non-scaling-stroke" class="st0" d="M20.4,5.9c-0.4,0-0.7,0.3-0.7,0.7c0,0.4,0.3,0.7,0.7,0.7
				s0.7-0.3,0.7-0.7C21.1,6.2,20.8,5.9,20.4,5.9z"/>
		</g>
	</g>
	<g>
		<g>
			<path vector-effect="non-scaling-stroke" class="st0" d="M34.3,28.4H21.9v-1.8c1.2-0.8,2.2-1.6,3-2.5c1.4-1.6,2.1-3.3,2.1-5.2
				c0-3.6-1.8-6.8-2.6-8.1c2.1-0.1,3.6-1.2,4.2-1.8l1,0.3c0.1,0,0.2,0,0.2,0c0.2,0,0.3,0,0.4-0.1c0.2-0.1,0.3-0.4,0.3-0.6
				c0-1.9-0.6-3.5-1.7-4.6c-1.6-1.6-3.7-1.8-4.5-1.9c-1-1-2.4-1.5-3.9-1.5c-3.2,0-5.8,2.6-5.8,5.8v6.2c-0.4,0.3-0.9,1-1.5,2.4
				c-0.5,0.6-1,1.2-1.5,2c-1.2,1.9-2,4.8-2.5,8.7c-0.1,1-0.2,1.9-0.2,2.6H0.7C0.3,28.3,0,28.6,0,29c0,0.4,0.3,0.7,0.7,0.7h8
				c0,0.7,0,1.1,0,1.1c0,0.3,0.1,0.5,0.3,0.6c-0.2,1.1-0.3,1.8-0.3,1.8c0,0.2,0,0.4,0.2,0.6C9,34,9.2,34,9.5,34H11
				c0.2,0,0.5-0.1,0.6-0.3l1.9-2.8c0.7-0.2,1.5-0.6,2.2-0.9c0.2-0.1,0.3-0.2,0.5-0.3h18.1c0.4,0,0.7-0.3,0.7-0.7
				C35,28.8,34.7,28.4,34.3,28.4z M27.9,5.2c0.6,0.6,1.1,1.5,1.2,2.5l-0.4-0.1l0,0l-2.4-0.8c0-0.1,0-0.1,0-0.2
				c0-0.9-0.2-1.8-0.6-2.6C26.4,4.2,27.2,4.5,27.9,5.2z M26,8.2l1,0.3c-0.4,0.2-0.8,0.5-1.3,0.6C25.8,8.9,25.9,8.6,26,8.2z
				 M20.4,2.2c2.4,0,4.4,2,4.4,4.4s-2,4.4-4.4,4.4C18,10.9,16,9,16,6.6S18,2.2,20.4,2.2z M10.5,32.8h-0.2c0-0.3,0.1-0.7,0.2-1.1
				c0.3,0,0.6-0.1,0.9-0.1L10.5,32.8z M10.2,30.3c0.1-2.2,0.5-8.9,2.6-12.4c0.9-1.4,1.8-2.4,2.9-3.1c0.9-0.6,1.8-0.9,2.7-0.9
				c2.3,0,4,1.9,4.3,3.6c0.3,2.3-0.9,5.2-3.1,7.7C17,28.2,13.5,30,10.2,30.3z M20.4,28.4h-2.1l0,0c0.7-0.3,1.3-0.6,2-1l0,0v1H20.4z
				 M24.1,17.4c-0.2-1.3-0.8-2.5-1.9-3.4c-1.1-1-2.4-1.5-3.8-1.5c-0.8,0-1.6,0.2-2.3,0.5v-2.5c1.1,1.2,2.6,2,4.4,2
				c1,0,1.9-0.2,2.7-0.7c0.7,1.2,2.4,4.1,2.4,7.2c0,2.6-1.7,4.6-3.9,6.1C23.5,22.5,24.3,19.7,24.1,17.4z"/>
		</g>
	</g>
</g>
<g>
	<g>
		<g>
			<path vector-effect="non-scaling-stroke" class="st1" d="M55.4,5.9c-0.4,0-0.7,0.3-0.7,0.7s0.3,0.7,0.7,0.7s0.7-0.3,0.7-0.7
				C56.1,6.2,55.8,5.9,55.4,5.9z"/>
		</g>
	</g>
	<g>
		<g>
			<path vector-effect="non-scaling-stroke" class="st1" d="M69.3,28.4H56.9v-1.8c1.2-0.8,2.2-1.6,3-2.5c1.4-1.6,2.1-3.3,2.1-5.2
				c0-3.6-1.8-6.8-2.6-8.1c2.1-0.1,3.6-1.2,4.2-1.8l1,0.3c0.1,0,0.2,0,0.2,0c0.2,0,0.3,0,0.4-0.1c0.2-0.1,0.3-0.4,0.3-0.6
				c0-1.9-0.6-3.5-1.7-4.6c-1.6-1.6-3.7-1.8-4.5-1.9c-1-1-2.4-1.5-3.9-1.5c-3.2,0-5.8,2.6-5.8,5.8v6.2c-0.4,0.3-0.9,1-1.5,2.4
				c-0.5,0.6-1,1.2-1.5,2c-1.2,1.9-2,4.8-2.5,8.7c-0.1,1-0.2,1.9-0.2,2.6h-8.2c-0.4,0-0.7,0.3-0.7,0.7c0,0.4,0.3,0.7,0.7,0.7h8
				c0,0.7,0,1.1,0,1.1c0,0.3,0.1,0.5,0.3,0.6c-0.2,1.1-0.3,1.8-0.3,1.8c0,0.2,0,0.4,0.2,0.6c0.1,0.2,0.3,0.3,0.6,0.3H46
				c0.2,0,0.5-0.1,0.6-0.3l1.9-2.9c0.8-0.2,1.5-0.6,2.2-0.9c0.2-0.1,0.3-0.2,0.5-0.3h18.1c0.4,0,0.7-0.3,0.7-0.7
				C70,28.8,69.7,28.4,69.3,28.4z M62.9,5.2c0.6,0.6,1.1,1.5,1.2,2.5l-0.4-0.1l0,0l-2.4-0.8c0-0.1,0-0.1,0-0.2
				c0-0.9-0.2-1.8-0.6-2.6C61.4,4.2,62.2,4.5,62.9,5.2z M61,8.2l0.9,0.3c-0.4,0.2-0.8,0.5-1.3,0.6C60.8,8.9,60.9,8.6,61,8.2z
				 M55.4,2.2c2.4,0,4.4,2,4.4,4.4s-2,4.4-4.4,4.4C53,11,51,9,51,6.6S53,2.2,55.4,2.2z M45.5,32.8h-0.2c0-0.3,0.1-0.7,0.2-1.1
				c0.3,0,0.6-0.1,0.9-0.1L45.5,32.8z M45.2,30.3c0.1-2.2,0.5-8.9,2.6-12.4c0.9-1.4,1.8-2.4,2.9-3.1c0.9-0.6,1.8-0.9,2.7-0.9
				c2.3,0,4,1.9,4.3,3.7c0.3,2.3-0.9,5.2-3.1,7.7C52,28.2,48.5,30,45.2,30.3z M55.4,28.4h-2.1l0,0c0.7-0.3,1.3-0.6,2-1l0,0v1H55.4z
				 M59,17.4c-0.2-1.3-0.8-2.5-1.9-3.4c-1.1-1-2.4-1.5-3.8-1.5c-0.8,0-1.6,0.2-2.3,0.5v-2.5c1.1,1.2,2.6,2,4.4,2
				c1,0,1.9-0.2,2.7-0.7c0.7,1.2,2.4,4.1,2.4,7.2c0,2.6-1.7,4.6-3.9,6.1C58.4,22.5,59.3,19.7,59,17.4z"/>
		</g>
	</g>
</g>
</svg>
