<?xml version="1.0" encoding="utf-8"?>
<!-- Generator: Adobe Illustrator 22.0.1, SVG Export Plug-In . SVG Version: 6.00 Build 0)  -->
<svg version="1.1" id="Layer_1" xmlns="http://www.w3.org/2000/svg" xmlns:xlink="http://www.w3.org/1999/xlink" x="0px" y="0px"
	 viewBox="0 0 70 35" style="enable-background:new 0 0 70 35;" xml:space="preserve">
<style type="text/css">
	.st0{fill:#6995BE;}
	.st1{fill:#A65DD5;}
</style>
<g>
	<g>
		<g>
			<path vector-effect="non-scaling-stroke" class="st0" d="M34.9,16.8c-0.1-0.1-2.1-3-3.3-4.4c-0.6-0.7-1.5-1.2-2.3-1.5
				c0.1-1.2,0.3-3.6,0.2-4.9c-0.1-0.9-0.9-2-2.3-3.4c-1-1-1.9-1.7-1.9-1.7c-0.2-0.2-0.4-0.2-0.7-0.1c-0.3,0-0.5,0.2-0.6,0.5
				c0,0.1-1.3,4.6-1,6.7c0.1,1.2,0.8,2.8,1.3,4l-2.4,1.5c-0.7-0.7-2.4-1.9-5.7-1.9c-1.3,0-2.7,0.2-4.1,0.5c-3.3,0.8-5.7,1.7-7.3,2.9
				c-1.4,1-2,2.1-2.3,2.8c0,0.1-0.1,0.1-0.1,0.2c-0.5,1-0.7,3.2-0.9,5l-1.4,3C0,26,0,26.2,0,26.3c0,0.2,0.1,1.5,1.2,2.1
				c0.4,0.2,0.7,0.3,1.1,0.3c0.1,0,0.2,0,0.2,0c0,0.2,0.1,0.3,0.1,0.5c0.5,1.3,1.2,2.3,1.2,2.3c0.2,0.2,0.4,0.3,0.6,0.3l2.1-0.2v1.9
				c0,0.2,0.1,0.4,0.2,0.5s0.3,0.2,0.5,0.2h18.3c0.4,0,0.7-0.3,0.7-0.7c0-1.8-1.8-3.1-2.2-3.5c-0.4-0.5-0.8-1.3-0.9-1.7
				c1.8-0.4,3.3-1.2,4.2-2.9c1.2-2.2,1.9-3.3,2.2-3.8c2.5-0.1,4.4-1.6,4.4-1.7c0.1,0,0.1-0.1,0.1-0.2l0.8-1.2
				c0.1-0.1,0.1-0.3,0.1-0.4v-1C35,17.1,35,17,34.9,16.8z M2.2,27.3c-0.1,0-0.2,0-0.3-0.1c-0.3-0.2-0.4-0.6-0.5-0.9l0.2-0.4l0.6,0.7
				C2.2,26.8,2.2,27.1,2.2,27.3z M32.9,18.9c-0.4,0.3-1.9,1.3-3.8,1.3c-0.2,0-0.4,0.1-0.5,0.2c0,0-0.9,1-2.6,4.3
				c-0.6,1.2-1.6,1.8-3,2.1c-0.1-1-0.1-2.1-0.1-2.1c0-0.4-0.4-0.7-0.8-0.7s-0.7,0.4-0.7,0.8c0,0.1,0.2,2.7,0.3,3.6
				c0.1,1.1,1.2,2.5,1.3,2.7c0.1,0.1,0.1,0.1,0.2,0.2c0.4,0.2,1.1,0.8,1.5,1.6h-2.9c0.1-0.3,0.2-0.6,0.2-1c0-0.7-0.6-1.2-1.7-1.6
				c-0.1,0-0.2-0.1-0.3-0.1c0,0,0,0,0-0.1c-0.4-0.8-0.7-2.8-0.8-3.6c0-0.4-0.4-0.7-0.8-0.7s-0.7,0.4-0.7,0.8c0,0.1,0,0.5,0.1,1
				c-0.7,0.1-1.5,0.2-2.3,0.4c0.1-0.3,0.1-0.4,0.1-0.6c0-1.1-0.5-3.6-1.8-5.3c-0.7-0.9-2-1.4-3.9-1.4c-1.3,0-2.5,0.1-2.6,0.1
				c-0.4,0.1-0.7,0.4-0.6,0.8s0.4,0.7,0.8,0.6c0,0,1.1-0.2,2.3-0.1c1.4,0,2.4,0.3,2.8,0.8c1.1,1.5,1.5,3.7,1.5,4.5
				c0,0.4-0.7,1.6-1.6,2.7c-0.2,0.2-0.2,0.5-0.1,0.8c0.1,0.3,0.4,0.4,0.7,0.4l0,0h5.6c0.7,0.1,1.5,0.4,1.6,0.6
				c0,0.3-0.2,0.7-0.4,0.9H8v-2c0-0.2-0.1-0.4-0.2-0.5c-0.2-0.1-0.4-0.2-0.6-0.2l-2.4,0.2C4.5,30,4.2,29.4,4,28.7
				c-0.1-0.3-0.2-0.6-0.2-0.9l0,0c-0.1-1,0.1-1.9,0.6-2.7c0.2-0.3,0.2-0.8-0.2-1c-0.3-0.2-0.8-0.2-1,0.2c-0.2,0-0.2,0.2-0.3,0.3
				c0.1-2.1,0.3-5.1,0.8-6c0-0.1,0.1-0.1,0.1-0.2c0.7-1.4,1.7-3.3,8.6-4.9c1.4-0.3,2.7-0.5,3.8-0.5s2.6,0.2,3.9,0.9
				c0.7,0.4,1,0.8,1,0.9c0.1,0.2,0.3,0.3,0.4,0.3c0.2,0.1,0.4,0,0.6-0.1l2.8-1.7c0,0.1,0.1,0.1,0.1,0.1c0.1,0.3,0.4,0.4,0.7,0.4
				c0.1,0,0.2,0,0.3-0.1c0.4-0.2,0.5-0.6,0.3-1c0,0-1.6-3.2-1.8-5c-0.1-1.1,0.3-3.5,0.7-5c0.3,0.3,0.6,0.6,1,0.9
				C27.7,5.2,27.9,6,28,6.2c0.2,1.7-0.2,5.3-0.2,5.3c-0.1,0.4,0.2,0.8,0.6,0.8c0.1,0,0.3,0,0.4,0c0.6,0.3,1.3,0.7,1.7,1.1
				c1,1.1,2.6,3.4,3.1,4V18l0,0L32.9,18.9z M18.3,29.9h-3.7c0,0,0-0.1,0.1-0.1c0,0,0-0.1,0.1-0.1c0.2,0,0.5-0.1,0.7-0.1
				c0.9-0.2,1.8-0.3,2.6-0.4C18.1,29.4,18.2,29.6,18.3,29.9z"/>
		</g>
	</g>
	<g>
		<g>
			<path vector-effect="non-scaling-stroke" class="st0" d="M29.9,13.8c-0.4,0-0.7,0.3-0.7,0.7s0.3,0.7,0.7,0.7
				c0.4,0,0.7-0.3,0.7-0.7S30.3,13.8,29.9,13.8z"/>
		</g>
	</g>
</g>
<g>
	<g>
		<g>
			<path vector-effect="non-scaling-stroke" class="st1" d="M69.9,16.8c-0.1-0.1-2.1-3-3.3-4.4c-0.6-0.7-1.5-1.2-2.3-1.5
				c0.1-1.2,0.3-3.6,0.2-4.9c-0.1-0.9-0.9-2-2.3-3.4c-1-1-1.9-1.7-1.9-1.7c-0.2-0.2-0.4-0.2-0.7-0.1c-0.3,0-0.5,0.2-0.6,0.4
				c0,0.2-1.3,4.7-1,6.7c0.1,1.2,0.8,2.8,1.3,4l-2.4,1.5c-0.7-0.7-2.4-1.9-5.7-1.9c-1.3,0-2.7,0.2-4.1,0.5c-3.3,0.8-5.7,1.7-7.3,2.9
				c-1.4,1-2,2.1-2.3,2.8c0,0-0.1,0.1-0.1,0.2c-0.5,1-0.7,3.2-0.9,5l-1.4,3C35,26,35,26.2,35,26.3c0,0.2,0.2,1.5,1.2,2.1
				c0.4,0.2,0.7,0.3,1.1,0.3c0.1,0,0.2,0,0.2,0c0,0.2,0.1,0.3,0.1,0.5c0.5,1.3,1.2,2.3,1.2,2.3c0.2,0.2,0.4,0.3,0.6,0.3l2.1-0.2v1.9
				c0,0.2,0.1,0.4,0.2,0.5c0.1,0.1,0.3,0.2,0.5,0.2h18.3c0.4,0,0.7-0.3,0.7-0.7c0-1.8-1.8-3.1-2.2-3.5c-0.4-0.5-0.8-1.3-0.9-1.7
				c1.8-0.4,3.3-1.2,4.2-2.9c1.2-2.2,1.9-3.3,2.2-3.8c2.5-0.1,4.4-1.6,4.4-1.7c0.1,0,0.1-0.1,0.1-0.2l0.8-1.2
				c0.1-0.1,0.1-0.3,0.1-0.4v-1C70,17.1,70,17,69.9,16.8z M37.2,27.3c-0.1,0-0.2,0-0.3-0.1c-0.3-0.2-0.4-0.6-0.5-0.9l0.2-0.4
				l0.6,0.7C37.2,26.8,37.2,27.1,37.2,27.3z M67.9,18.9c-0.3,0.3-1.9,1.3-3.8,1.3c-0.2,0-0.4,0.1-0.5,0.2c0,0-0.9,1-2.6,4.3
				c-0.6,1.2-1.6,1.8-3,2.1c-0.1-1-0.1-2.1-0.1-2.1c0-0.4-0.4-0.7-0.8-0.7s-0.7,0.4-0.7,0.8c0,0.1,0.2,2.7,0.3,3.6
				c0.1,1.1,1.2,2.5,1.3,2.7c0,0.1,0.1,0.1,0.2,0.2c0.4,0.2,1.1,0.8,1.5,1.6h-2.9c0.1-0.3,0.2-0.6,0.2-1c0-0.7-0.6-1.2-1.7-1.6
				c-0.1,0-0.2-0.1-0.3-0.1c0,0,0,0,0-0.1c-0.4-0.8-0.7-2.8-0.8-3.6c0-0.4-0.4-0.7-0.8-0.7c-0.4,0-0.7,0.4-0.7,0.8
				c0,0.1,0,0.5,0.1,1.1c-0.7,0.1-1.5,0.2-2.3,0.4c0.1-0.3,0.1-0.4,0.1-0.6c0-1.1-0.5-3.6-1.8-5.3c-0.6-0.9-2-1.4-3.9-1.4
				c-1.3,0-2.5,0.1-2.6,0.1c-0.4,0.1-0.7,0.4-0.6,0.8c0.1,0.4,0.4,0.7,0.8,0.6c0,0,1.1-0.2,2.3-0.1c1.4,0,2.4,0.3,2.8,0.8
				c1.1,1.5,1.5,3.7,1.5,4.5c0,0.4-0.7,1.6-1.6,2.7c-0.2,0.2-0.2,0.5-0.1,0.8c0.1,0.3,0.4,0.4,0.7,0.4l0,0h5.6
				c0.7,0.1,1.5,0.4,1.6,0.6c0,0.3-0.2,0.7-0.4,0.9H43v-2c0-0.2-0.1-0.4-0.2-0.5c-0.2-0.1-0.4-0.2-0.6-0.2l-2.4,0.2
				c-0.3-0.4-0.6-1-0.8-1.7c-0.1-0.3-0.2-0.6-0.2-0.9l0,0c-0.2-1,0.1-1.9,0.6-2.7c0.2-0.3,0.2-0.8-0.2-1c-0.3-0.2-0.8-0.2-1,0.2
				c-0.2,0-0.2,0.2-0.3,0.3c0.1-2.1,0.3-5.1,0.8-6c0-0.1,0.1-0.1,0.1-0.2c0.7-1.4,1.7-3.3,8.6-4.9c1.4-0.3,2.7-0.5,3.8-0.5
				s2.6,0.2,3.9,0.9c0.7,0.4,1,0.8,1,0.9c0.1,0.2,0.3,0.3,0.4,0.3c0.2,0.1,0.4,0,0.6-0.1l2.8-1.7c0,0.1,0.1,0.1,0.1,0.1
				c0.1,0.3,0.4,0.4,0.6,0.4c0.1,0,0.2,0,0.3-0.1c0.4-0.2,0.5-0.6,0.3-1c0,0-1.6-3.2-1.8-5c-0.1-1.1,0.3-3.5,0.7-5
				c0.3,0.3,0.6,0.6,1,0.9C62.7,5.2,62.9,6,63,6.2c0.2,1.7-0.2,5.3-0.2,5.3c-0.1,0.4,0.2,0.8,0.6,0.8c0.1,0,0.3,0,0.4,0
				c0.6,0.3,1.3,0.7,1.7,1.1c1,1.1,2.6,3.4,3.1,4V18l0,0L67.9,18.9z M53.3,29.9h-3.7c0,0,0-0.1,0.1-0.1c0,0,0-0.1,0.1-0.1
				c0.2,0,0.5-0.1,0.7-0.1c0.9-0.2,1.8-0.3,2.6-0.4C53.2,29.4,53.2,29.6,53.3,29.9z"/>
		</g>
	</g>
	<g>
		<g>
			<path vector-effect="non-scaling-stroke" class="st1" d="M64.9,13.9c-0.4,0-0.7,0.3-0.7,0.7s0.3,0.7,0.7,0.7s0.7-0.3,0.7-0.7
				S65.3,13.9,64.9,13.9z"/>
		</g>
	</g>
</g>
</svg>
